<svg width="404" height="167" viewBox="0 0 404 167" fill="none" xmlns="http://www.w3.org/2000/svg">
<g clip-path="url(#clip0_30_78)">
<path d="M286.251 25.457C292.007 25.5715 297.914 25.5281 303.694 25.595C303.521 35.7317 303.685 45.945 303.557 56.1075L329.083 56.086C329.07 45.8788 328.98 35.6721 328.818 25.4664C334.935 25.5732 341.243 25.4839 347.407 25.5476C347.121 50.8017 347.379 76.5831 347.437 101.871L347.42 102.325C346.634 102.867 331.47 102.729 329.07 102.744C329.145 92.4582 329.102 82.1721 328.94 71.8876C320.713 71.9859 312.11 71.8135 303.937 72.105C303.61 82.1638 303.749 92.5755 303.76 102.672C298.013 102.646 292.268 102.661 286.52 102.718C286.77 87.9088 286.491 73.0214 286.614 58.1999C286.704 47.3245 286.672 36.3174 286.251 25.457Z" fill="#EF5350"/>
<path d="M83.7819 36.7944C90.6185 43.237 97.0092 50.0886 103.73 56.6552C110.402 63.1738 116.873 69.8458 123.682 76.2284C123.644 73.0943 123.572 69.8988 123.666 66.7712C127.055 66.7906 130.575 66.7599 133.953 66.8344C133.948 72.9041 133.72 80.9514 134.011 86.8904C138.899 91.4248 143.605 96.4987 148.465 100.963C143.565 101.021 137.963 101.171 133.087 100.938C130.621 100.901 126.318 100.696 124.04 100.987C121.496 98.0858 117.604 94.6234 114.842 91.7042C104.784 81.0763 93.2559 70.7158 83.4221 59.9703C75.1682 69.1497 65.5952 77.8362 56.8104 86.5891L47.4826 96.0005C45.9916 97.506 44.0827 99.6669 42.4289 100.866C39.9786 100.713 36.4039 100.807 33.8677 100.793C29.0812 101.121 24.2844 101.276 19.4866 101.256C23.0182 96.2845 30.9691 88.7783 35.5556 84.3062C42.5051 77.5581 49.4098 70.7643 56.2697 63.9248L75.1031 45.1286C76.9569 43.3 81.8899 38.2188 83.7819 36.7944Z" fill="#EF5350"/>
<path d="M83.9448 51.8267C88.9765 56.6219 93.2791 61.2191 98.0994 66.1707L117.775 86.0855C121.224 89.5029 124.698 92.8961 128.195 96.2651C129.207 97.2303 132.517 100.162 133.087 100.938C130.621 100.901 126.318 100.696 124.04 100.987C121.496 98.0858 117.604 94.6233 114.842 91.7041C104.784 81.0763 93.2558 70.7158 83.422 59.9703C75.1682 69.1496 65.5952 77.8361 56.8104 86.589L47.4825 96.0005C45.9916 97.506 44.0827 99.6669 42.4288 100.866C39.9785 100.713 36.4038 100.807 33.8677 100.793C36.2421 98.6942 38.8953 95.8463 41.2687 93.5912C50.962 84.3004 60.5295 74.8793 69.9684 65.3306C74.1112 61.2221 78.3995 57.2591 82.5112 53.1182C82.9673 52.6586 83.4295 52.2207 83.9448 51.8267Z" fill="#404040"/>
<path d="M383.519 25.478C384.846 25.6 388.306 25.4857 389.762 25.4827C393.504 25.4759 397.248 25.5135 400.987 25.5953L400.919 73.9175C400.923 83.2958 400.767 93.3296 401.032 102.67L383.513 102.721C383.684 95.5537 383.537 87.9202 383.547 80.7147L383.618 43.3157C383.605 39.6851 383.569 36.0548 383.509 32.4247C383.483 31.1095 383.291 26.4514 383.519 25.478Z" fill="#EF5350"/>
<path d="M47.5345 8.10994C48.6529 7.96327 67.2361 12.1799 68.8573 12.8552C65.4794 14.331 61.17 15.4857 57.5957 16.8284C41.8986 22.7258 29.7689 34.0498 20.6565 47.906C19.6237 49.4767 14.3299 53.7446 12.6577 55.2145C8.05805 59.3797 5.69618 61.5868 1.55823 66.2246C2.72427 61.7762 3.05922 59.6761 4.74277 55.0035C12.5832 33.2432 27.0173 18.1131 47.5345 8.10994Z" fill="#EF5350"/>
<path d="M139.306 22.0488C140.259 22.4061 142.897 24.7148 143.728 25.5147C157.756 39.0242 166.388 58.9063 167.218 78.3167C167.315 80.5743 167.541 88.4641 166.812 90.1043C165.794 92.3931 160.535 97.7758 158.564 99.9117C156.541 102.08 154.32 104.517 152.037 106.379C152.201 105.634 152.447 104.742 152.662 104.015C157.076 89.1675 156.281 73.3998 151.011 58.8743C149.873 55.0802 147.348 51.0392 146.299 47.3008C143.901 38.7551 142.072 30.5209 139.306 22.0488Z" fill="#EF5350"/>
<path d="M28.6326 130.97C28.9651 131.065 36.3747 137.742 36.8768 138.174C50.2486 149.697 67.0856 155.253 84.5671 155.638C85.2843 155.654 90.0678 157.649 91.2367 158.079C94.6794 159.324 98.1969 160.352 101.768 161.155C103.058 161.437 106.745 161.901 107.487 162.625L107.41 163.007C106.738 163.588 105.608 163.797 104.723 164.038C86.9341 169.366 62.3048 167.117 45.8886 158.41C42.9633 156.858 38.9232 154.978 36.6457 152.609C33.8388 149.69 30.0468 135.573 28.6326 130.97Z" fill="#EF5350"/>
<path d="M15.3066 60.3628L15.4758 60.5956C15.429 61.4739 14.7955 62.617 14.5237 63.4767C10.1239 77.3973 10.4693 93.4477 15.5821 107.132C16.3388 109.157 16.9614 111.245 17.834 113.242C18.7485 115.335 19.883 117.407 20.566 119.592C22.4655 126.813 24.7379 138.931 27.8594 145.42C25.6216 143.536 23.6341 141.66 21.5375 139.626C21.3197 139.414 21.1052 139.199 20.8947 138.979C8.2695 125.831 1.30757 107.176 0.144324 89.1629C-0.0954715 85.4499 0.0175707 80.3701 0.0999232 76.6467C5.44559 70.0446 9.24487 66.3539 15.3066 60.3628Z" fill="#404040"/>
<path d="M165.183 100.903L165.414 101.224C165.364 102.828 162.24 111.913 161.559 113.726C153.969 133.61 138.827 149.688 119.432 158.457C113.812 157.434 108.067 156.519 102.479 155.379C100.674 154.978 99.4996 154.579 97.7827 153.919C115.7 149.593 127.502 142.828 139.596 128.678C142.427 125.366 144.715 121.271 147.578 118.095C149.906 115.511 153.146 112.714 155.767 110.307C159.043 107.313 162.185 104.175 165.183 100.903Z" fill="#404040"/>
<path d="M79.2903 0.0515988C94.2445 -0.452779 109.883 2.73314 123.08 9.93587C125.409 11.2066 128.39 12.6541 130.168 14.636C132.666 17.4215 137.18 31.7717 138.429 36.023C134.726 33.2145 131.223 29.5182 127.106 26.3822C117.849 18.7912 105.51 14.1699 93.7554 12.1053C90.853 11.5956 85.9332 11.9925 83.78 11.4989C82.1112 11.1164 77.6322 9.01041 75.3145 8.23496C69.9597 6.44342 63.4616 5.81042 58.5459 3.8817C65.2272 1.70802 72.2658 0.244881 79.2903 0.0515988Z" fill="#404040"/>
<path d="M74.7123 92.9556C77.2816 92.9652 79.8508 92.9987 82.4196 93.0559C82.4944 95.55 82.432 98.2268 82.4137 100.737C80.0219 100.837 77.1962 100.772 74.7715 100.775C74.7209 98.2966 74.6 95.3932 74.7123 92.9556Z" fill="#404040"/>
<path d="M74.6989 82.342C77.3377 82.3031 79.977 82.3307 82.6144 82.4249C82.6612 84.886 82.615 87.348 82.4758 89.8055C81.3802 90.0056 76.1815 89.9016 74.7454 89.8907L74.6989 82.342Z" fill="#404040"/>
<path d="M85.6526 92.8735L93.3891 92.9777L93.4026 100.761C90.947 100.814 88.335 100.768 85.8666 100.767C85.8352 98.1351 85.7639 95.5036 85.6526 92.8735Z" fill="#404040"/>
<path d="M86.0785 82.2102C88.5557 82.2209 90.9267 82.2119 93.3997 82.3864C93.427 84.9314 93.4039 87.4769 93.3305 90.0211C90.9195 90.0666 88.5078 90.0167 86.1009 89.8714L86.0785 82.2102Z" fill="#404040"/>
<path d="M191.93 119.086V126.916H199.88V128.656H191.93V136.606H200.78V138.346H189.83V117.346H200.78V119.086H191.93Z" fill="#EF5350"/>
<path d="M221.478 127.876L227.838 138.346H225.498L220.158 129.586L215.088 138.346H212.748L219.078 127.786L212.748 117.376H215.088L220.398 126.106L225.528 117.376H227.868L221.478 127.876Z" fill="#EF5350"/>
<path d="M252.737 117.376V119.116H246.917V138.346H244.817V119.116H238.967V117.376H252.737Z" fill="#EF5350"/>
<path d="M267.153 119.086V126.916H275.103V128.656H267.153V136.606H276.003V138.346H265.053V117.346H276.003V119.086H267.153Z" fill="#EF5350"/>
<path d="M300.301 138.346L295.111 129.586H291.241V138.346H289.141V117.376H295.441C297.781 117.376 299.551 117.936 300.751 119.056C301.971 120.176 302.581 121.646 302.581 123.466C302.581 124.986 302.141 126.286 301.261 127.366C300.401 128.426 299.121 129.116 297.421 129.436L302.821 138.346H300.301ZM291.241 127.876H295.471C297.111 127.876 298.341 127.476 299.161 126.676C300.001 125.876 300.421 124.806 300.421 123.466C300.421 122.086 300.021 121.026 299.221 120.286C298.421 119.526 297.161 119.146 295.441 119.146H291.241V127.876Z" fill="#EF5350"/>
<path d="M317.848 117.376V138.346H315.748V117.376H317.848Z" fill="#EF5350"/>
<path d="M341.024 138.556C339.084 138.556 337.324 138.106 335.744 137.206C334.164 136.286 332.914 135.016 331.994 133.396C331.094 131.756 330.644 129.906 330.644 127.846C330.644 125.786 331.094 123.946 331.994 122.326C332.914 120.686 334.164 119.416 335.744 118.516C337.324 117.596 339.084 117.136 341.024 117.136C342.984 117.136 344.754 117.596 346.334 118.516C347.914 119.416 349.154 120.686 350.054 122.326C350.954 123.946 351.404 125.786 351.404 127.846C351.404 129.906 350.954 131.756 350.054 133.396C349.154 135.016 347.914 136.286 346.334 137.206C344.754 138.106 342.984 138.556 341.024 138.556ZM341.024 136.726C342.584 136.726 343.984 136.366 345.224 135.646C346.464 134.926 347.444 133.896 348.164 132.556C348.884 131.196 349.244 129.626 349.244 127.846C349.244 126.066 348.884 124.506 348.164 123.166C347.444 121.826 346.464 120.796 345.224 120.076C343.984 119.356 342.584 118.996 341.024 118.996C339.464 118.996 338.064 119.356 336.824 120.076C335.584 120.796 334.604 121.826 333.884 123.166C333.164 124.506 332.804 126.066 332.804 127.846C332.804 129.626 333.164 131.196 333.884 132.556C334.604 133.896 335.584 134.926 336.824 135.646C338.064 136.366 339.464 136.726 341.024 136.726Z" fill="#EF5350"/>
<path d="M375.406 138.346L370.216 129.586H366.346V138.346H364.246V117.376H370.546C372.886 117.376 374.656 117.936 375.856 119.056C377.076 120.176 377.686 121.646 377.686 123.466C377.686 124.986 377.246 126.286 376.366 127.366C375.506 128.426 374.226 129.116 372.526 129.436L377.926 138.346H375.406ZM366.346 127.876H370.576C372.216 127.876 373.446 127.476 374.266 126.676C375.106 125.876 375.526 124.806 375.526 123.466C375.526 122.086 375.126 121.026 374.326 120.286C373.526 119.526 372.266 119.146 370.546 119.146H366.346V127.876Z" fill="#EF5350"/>
<path d="M397.214 138.556C395.834 138.556 394.614 138.316 393.554 137.836C392.514 137.356 391.694 136.686 391.094 135.826C390.494 134.966 390.174 134.006 390.134 132.946H392.354C392.454 133.966 392.904 134.866 393.704 135.646C394.504 136.406 395.674 136.786 397.214 136.786C398.634 136.786 399.754 136.426 400.574 135.706C401.414 134.966 401.834 134.036 401.834 132.916C401.834 132.016 401.604 131.296 401.144 130.756C400.684 130.196 400.114 129.786 399.434 129.526C398.754 129.246 397.814 128.946 396.614 128.626C395.214 128.246 394.104 127.876 393.284 127.516C392.464 127.156 391.764 126.596 391.184 125.836C390.604 125.076 390.314 124.046 390.314 122.746C390.314 121.666 390.594 120.706 391.154 119.866C391.714 119.006 392.504 118.336 393.524 117.856C394.544 117.376 395.714 117.136 397.034 117.136C398.974 117.136 400.534 117.616 401.714 118.576C402.914 119.516 403.604 120.736 403.784 122.236H401.504C401.364 121.376 400.894 120.616 400.094 119.956C399.294 119.276 398.214 118.936 396.854 118.936C395.594 118.936 394.544 119.276 393.704 119.956C392.864 120.616 392.444 121.526 392.444 122.686C392.444 123.566 392.674 124.276 393.134 124.816C393.594 125.356 394.164 125.766 394.844 126.046C395.544 126.326 396.484 126.626 397.664 126.946C399.024 127.326 400.124 127.706 400.964 128.086C401.804 128.446 402.514 129.006 403.094 129.766C403.674 130.526 403.964 131.546 403.964 132.826C403.964 133.806 403.704 134.736 403.184 135.616C402.664 136.496 401.894 137.206 400.874 137.746C399.854 138.286 398.634 138.556 397.214 138.556Z" fill="#EF5350"/>
<path fill-rule="evenodd" clip-rule="evenodd" d="M210.667 25.582C222.928 25.603 233.124 27.3561 242.117 36.6357C256.742 51.7253 256.706 77.0242 241.71 91.9092C231.023 101.978 221.287 102.655 207.585 102.66C202.205 102.643 196.824 102.659 191.443 102.706C191.217 77.0603 191.682 51.1807 191.253 25.5781L210.667 25.582ZM208.468 86.8359C216.698 86.784 222.614 86.5906 229.126 80.2881C237.666 71.3018 237.363 55.9379 228.517 47.2188C222.813 41.5969 215.993 41.1811 208.403 41.2061L208.468 86.8359Z" fill="#EF5350"/>
</g>
<defs>
<clipPath id="clip0_30_78">
<rect width="404" height="167" fill="white"/>
</clipPath>
</defs>
</svg>
